<?xml version="1.0" standalone="no"?>
<!DOCTYPE svg PUBLIC "-//W3C//DTD SVG 20010904//EN"
 "http://www.w3.org/TR/2001/REC-SVG-20010904/DTD/svg10.dtd">
<svg version="1.0" xmlns="http://www.w3.org/2000/svg"
 width="512.000000pt" height="512.000000pt" viewBox="0 0 512.000000 512.000000"
 preserveAspectRatio="xMidYMid meet">

<g transform="translate(0.000000,512.000000) scale(0.100000,-0.100000)"
fill="#000000" stroke="none">
<path d="M2761 4630 c-206 -56 -363 -184 -456 -375 -99 -200 -98 -418 1 -620
60 -121 120 -185 298 -316 88 -66 172 -128 186 -139 25 -19 17 -19 -628 -19
-592 -1 -657 -3 -682 -18 -61 -36 -72 -123 -21 -174 l29 -29 862 0 862 0 29
29 c24 25 29 38 29 78 0 30 -7 56 -18 69 -9 12 -145 115 -302 229 -356 259
-360 262 -409 336 -103 154 -108 370 -13 519 102 159 297 250 476 221 39 -7
98 -25 131 -40 65 -31 1155 -823 1270 -923 456 -396 555 -1021 243 -1525 -106
-172 -188 -242 -848 -724 -327 -239 -623 -448 -656 -465 -258 -132 -580 8
-666 290 -17 56 -20 86 -16 167 4 89 9 107 42 174 22 45 58 96 89 128 29 28
183 147 342 262 159 116 300 221 312 234 18 18 23 36 23 73 0 43 -4 54 -31 79
l-31 29 -1272 0 c-875 0 -1291 3 -1331 11 -147 27 -258 127 -299 268 -50 170
31 354 192 435 71 36 146 46 339 46 190 0 219 7 241 55 23 49 15 94 -22 131
l-34 34 -214 0 c-182 0 -227 -3 -293 -20 -206 -53 -376 -222 -429 -426 -20
-78 -21 -231 -1 -304 22 -82 78 -188 132 -249 59 -67 174 -144 262 -173 l66
-23 1134 -5 1134 -5 -182 -134 c-201 -147 -265 -213 -325 -335 -99 -201 -100
-420 -1 -621 95 -195 253 -323 465 -376 172 -44 388 -10 532 83 33 21 326 233
651 470 505 369 607 447 697 537 205 207 336 461 385 745 19 114 22 326 5 431
-28 178 -96 366 -186 516 -147 243 -227 315 -904 809 -677 494 -684 498 -790
534 -116 39 -287 46 -399 16z"/>
</g>
</svg>
