<svg width="100" height="100" viewBox="0 0 100 100" fill="none" xmlns="http://www.w3.org/2000/svg">
<g opacity="0.25">
<path d="M94.7654 50.3797L92.427 49.2332C92.4439 47.5812 92.4184 46.0807 92.427 44.668C92.427 37.3996 90.5623 30.26 87.0275 23.9465C87.8537 22.7551 87.8947 21.1654 87.0566 19.9115C83.9502 15.2627 80.0525 11.2777 75.4721 8.06719C72.4721 5.96445 69.2232 4.23711 65.816 2.93281C65.0603 2.64355 64.2135 3.02168 63.9242 3.77715C63.635 4.53281 64.0131 5.37969 64.7686 5.66895C67.9516 6.8873 70.9871 8.50137 73.7904 10.4664C78.0727 13.468 81.7166 17.1936 84.6207 21.5395C84.8039 21.8135 84.7609 22.1744 84.5189 22.3977C84.2969 22.5734 79.4049 27.1756 79.109 27.3547C78.9602 27.4291 78.8166 27.4273 78.732 27.416C78.6127 27.3998 78.3898 27.3363 78.2385 27.093C76.3152 24.0018 73.9141 21.2572 71.1016 18.9352C65.1437 14.0164 57.6113 11.3074 49.8918 11.3074C41.7744 11.3074 33.9463 14.2687 27.849 19.6461C25.449 21.7625 23.3678 24.2051 21.6627 26.9055C21.5219 27.1283 21.3086 27.1832 21.1938 27.1959C21.0736 27.2096 20.8428 27.2023 20.6443 27.0037L15.5582 21.9174C15.3316 21.6906 15.2998 21.3334 15.4826 21.0676C17.6391 17.9338 20.2131 15.1049 23.1332 12.6594C30.6262 6.38516 40.1293 2.92969 49.892 2.92969C52.5771 2.92969 55.2641 3.1875 57.8783 3.69609C58.6723 3.85059 59.4414 3.33203 59.5959 2.53789C59.7504 1.74375 59.2318 0.974805 58.4377 0.820312C55.6396 0.275977 52.7645 0 49.892 0C39.4428 0 29.2717 3.69844 21.2523 10.4137C18.1291 13.0293 15.3758 16.0553 13.0691 19.4072C12.1857 20.6912 12.2404 22.375 13.148 23.5928C11.6934 26.0881 10.4918 28.7182 9.57266 31.4273C9.3127 32.1934 9.72324 33.0252 10.4893 33.2852C10.6453 33.3381 10.8039 33.3631 10.96 33.3631C11.5703 33.3631 12.14 32.9785 12.3471 32.3686C13.1166 30.1004 14.1014 27.8922 15.2768 25.7793L18.4049 28.9076C15.9205 33.8793 14.6109 39.4145 14.6109 44.9973V75.4941L6.52168 71.5281C5.56875 71.0609 4.95293 70.0734 4.95293 69.0121V55.5262C4.95293 54.4648 5.56875 53.4773 6.52168 53.0102C7.01621 52.7457 8.01406 52.3105 8.83984 51.873C9.73242 51.3943 10.2869 50.4674 10.2869 49.4539V45.0148C10.2764 43.1299 10.4064 41.2273 10.6734 39.3604C10.7881 38.5594 10.2316 37.8174 9.43086 37.7029C8.63105 37.5881 7.88809 38.1447 7.77344 38.9455C7.48594 40.9549 7.34609 43.0023 7.35723 45.023V49.3432C6.99082 49.5455 5.77363 50.0955 5.17871 50.4061C3.25996 51.3723 2.02344 53.3752 2.02344 55.5262V69.0121C2.02344 71.1828 3.28301 73.2031 5.23203 74.1588L15.0031 78.9492C16.0301 82.0656 18.9672 84.3223 22.4232 84.3223C26.7309 84.3223 30.2353 80.818 30.2353 76.5104V50.1617C30.2353 45.8541 26.7309 42.3496 22.4232 42.3496C20.5838 42.3496 18.892 42.9902 17.5557 44.058C17.6939 39.2158 18.8982 34.4393 21.0684 30.1289C21.2178 30.1307 21.368 30.1244 21.5189 30.1074C22.6039 29.9863 23.5594 29.3895 24.1402 28.4693C25.6963 26.0047 27.5963 23.7752 29.7871 21.8432C35.3488 16.9383 42.4889 14.2369 49.892 14.2369C56.9324 14.2369 63.8023 16.7076 69.2365 21.1941C71.8039 23.3139 73.9957 25.8189 75.751 28.6402C76.3246 29.5621 77.268 30.174 78.3393 30.3189C78.501 30.3408 78.6625 30.3516 78.8232 30.3516C78.8939 30.3516 78.9641 30.3459 79.0342 30.3418C81.1371 34.5951 82.3059 39.2969 82.442 44.058C81.1057 42.99 79.4139 42.3494 77.5742 42.3494C73.2666 42.3494 69.7621 45.8539 69.7621 50.1615V54.5547C69.7621 55.3637 70.418 56.0195 71.227 56.0195C72.0359 56.0195 72.6918 55.3637 72.6918 54.5547V50.1615C72.6918 47.4693 74.882 45.2791 77.5742 45.2791C80.2664 45.2791 82.4566 47.4693 82.4566 50.1615V76.5102C82.4566 79.2021 80.2664 81.3924 77.5742 81.3924C74.882 81.3924 72.6918 79.2021 72.6918 76.5102V61.9406C72.6918 61.1316 72.0359 60.4758 71.227 60.4758C70.418 60.4758 69.7621 61.1316 69.7621 61.9406V76.5102C69.7621 80.8178 73.2666 84.3221 77.5742 84.3221C79.4205 84.3221 81.118 83.677 82.4566 82.602V86.0914C82.4566 87.1453 81.599 88.0029 80.5451 88.0029H62.9941C62.5377 86.6516 61.2607 85.6748 59.7574 85.6748H48.6811C46.7965 85.6748 45.2631 87.2082 45.2631 89.0928V96.582C45.2631 98.4666 46.7965 100 48.6811 100H59.7574C61.2555 100 62.5287 99.0297 62.9891 97.6855H72.4994C73.3084 97.6855 73.9643 97.0297 73.9643 96.2207C73.9643 95.4117 73.3084 94.7559 72.4994 94.7559H63.1754V90.9328H80.5451C83.2145 90.9328 85.3863 88.7609 85.3863 86.0916V78.7568L89.2094 76.8826V89.89C89.2094 92.573 87.0266 94.7559 84.3436 94.7559H79.8068C78.9979 94.7559 78.342 95.4117 78.342 96.2207C78.342 97.0297 78.9979 97.6855 79.8068 97.6855H84.3436C88.642 97.6855 92.1391 94.1885 92.1391 89.89V75.4463L94.7654 74.1588C96.7145 73.2031 97.974 71.183 97.974 69.0121V55.5262C97.974 53.3555 96.7145 51.3354 94.7654 50.3797ZM22.423 45.2795C25.1152 45.2795 27.3055 47.4697 27.3055 50.1619V76.5106C27.3055 79.2025 25.1152 81.3928 22.423 81.3928C19.7309 81.3928 17.5406 79.2025 17.5406 76.5106V50.1617C17.5406 47.4695 19.7309 45.2795 22.423 45.2795ZM48.1926 96.582V89.0932C48.1926 88.824 48.4117 88.6049 48.6809 88.6049H52.7541V97.0703H48.6809C48.4117 97.0703 48.1926 96.8512 48.1926 96.582ZM60.2455 96.582C60.2455 96.8512 60.0264 97.0703 59.7572 97.0703H55.684V88.6049H59.7572C60.0264 88.6049 60.2455 88.824 60.2455 89.0932V96.582ZM95.0443 69.0123C95.0443 70.0736 94.4285 71.0611 93.4756 71.5283L85.3863 75.4943C85.3863 71.7584 85.3863 48.0398 85.3863 44.9975C85.3863 39.4621 84.0979 33.968 81.6531 29.0287L84.8533 26.0756C87.8916 31.7701 89.4926 38.1496 89.4973 44.6406C89.4867 45.857 89.516 47.4885 89.4953 49.4547C89.4861 50.4244 90.0422 51.3268 90.9123 51.7535L93.4758 53.0103C94.4287 53.4775 95.0445 54.465 95.0445 55.5264V69.0123H95.0443Z" fill="#44ADCF"/>
<path d="M63.1721 45.2276C63.0665 43.9598 62.3274 42.9329 61.2891 42.6112C60.7999 42.4596 59.5327 42.2661 58.3319 43.7397C57.2153 45.1098 51.6044 55.2469 50.4909 57.2651C50.2405 57.7188 50.2485 58.2712 50.512 58.7175C50.7755 59.1637 51.2552 59.4376 51.7733 59.4376H60.2317C60.2208 60.9919 60.2089 62.4915 60.1975 63.8223C60.1905 64.6313 60.8407 65.2926 61.6497 65.2997H61.6626C62.4655 65.2997 63.1202 64.6522 63.127 63.8473C63.1315 63.3272 63.146 61.6216 63.1616 59.4374H64.2464C65.0554 59.4374 65.7112 58.7815 65.7112 57.9725C65.7112 57.1635 65.0554 56.5077 64.2464 56.5077H63.1811C63.2116 51.5909 63.2317 45.9442 63.1721 45.2276ZM60.2514 56.5079H54.2608C56.4604 52.5577 59.2132 47.7044 60.2702 46.0702C60.2932 47.6778 60.2784 52.0276 60.2514 56.5079Z" fill="#44ADCF"/>
<path d="M48.1265 63.9652C48.1164 63.1563 47.4601 62.5141 46.6433 62.5189C43.975 62.5525 41.1152 62.5711 39.1574 62.5627C40.257 61.1166 42.0557 58.7168 44.8099 54.7813C46.1394 52.8078 47.1527 50.9426 47.2846 48.8607C47.2846 45.2506 44.3474 42.3135 40.7373 42.3135C37.6156 42.3135 34.9139 44.534 34.3129 47.5934C34.157 48.3871 34.6742 49.157 35.468 49.3131C36.2619 49.4686 37.0318 48.9518 37.1877 48.158C37.5193 46.4691 39.0123 45.2432 40.7373 45.2432C42.7033 45.2432 44.3082 46.8199 44.3539 48.7752C44.2422 50.0953 43.5191 51.4408 42.4096 53.1012C39.2543 57.6094 37.3705 60.0762 36.3584 61.4014C35.1549 62.9771 34.7918 63.4527 35.0566 64.3141C35.2064 64.8014 35.5783 65.1762 36.0767 65.3422C37.0959 65.6156 43.3797 65.4633 46.6799 65.4482C47.489 65.4381 48.1367 64.7742 48.1265 63.9652Z" fill="#44ADCF"/>
</g>
</svg>
