<svg width="24" height="24" viewBox="0 0 24 24" fill="none" xmlns="http://www.w3.org/2000/svg">
<path d="M8.19907 22C4.89907 22 2.19907 19.4 1.99907 16.1C1.99907 15.8 1.99907 15.6 1.99907 15.3V8.6C1.89907 7 2.49907 5.4 3.59907 4.1C4.69907 2.8 6.29907 2.1 7.89907 2H8.69907H14.9991C15.5991 2 15.9991 2.4 15.9991 3C15.9991 3.6 15.5991 4 14.9991 4H8.59907C8.39907 4 8.19907 4 7.99907 4C6.89907 4.1 5.79907 4.6 4.99907 5.4C4.29907 6.3 3.89907 7.4 3.99907 8.6V15.4V16C4.09907 18.4 6.19907 20.2 8.59907 20H15.3991H15.9991C18.3991 19.9 20.1991 17.8 19.9991 15.4V10C19.9991 9.4 20.3991 9 20.9991 9C21.5991 9 21.9991 9.4 21.9991 10V15.4C22.1991 18.8 19.5991 21.8 16.0991 22C15.7991 22 15.5991 22 15.2991 22H8.59907C8.49907 22 8.39907 22 8.19907 22Z" fill="#C3D431"/>
<path d="M10.8009 16.9998C10.7009 16.9998 10.6009 16.9998 10.4009 16.8998C9.90093 16.6998 9.60093 16.0998 9.80093 15.5998C11.1009 12.2998 15.4009 5.6998 19.5009 3.9998C20.0009 3.7998 20.6009 3.9998 20.8009 4.5998C21.0009 5.0998 20.8009 5.6998 20.2009 5.8998C16.7009 7.2998 12.7009 13.4998 11.6009 16.2998C11.6009 16.7998 11.2009 16.9998 10.8009 16.9998Z" fill="#C3D431"/>
<path d="M10.8 17C10.4 17 10.1 16.8 9.9 16.5C8.9 14.7 7.7 13.1 6.3 11.7C5.9 11.3 5.9 10.7 6.3 10.3C6.7 9.9 7.3 9.9 7.7 10.3C9.3 11.8 10.6 13.6 11.7 15.5C12 16 11.8 16.6 11.3 16.9C11.2 17 11 17 10.8 17Z" fill="#C3D431"/>
</svg>
