<svg width="100" height="100" viewBox="0 0 100 100" fill="none" xmlns="http://www.w3.org/2000/svg">
<g opacity="0.25">
<path d="M95.3155 14.975C93.7323 13.1113 91.4217 12.0424 88.9762 12.0424H79.3508L79.8475 9.98027H80.0842C82.8358 9.98027 85.0744 7.7416 85.0744 4.99004C85.0746 2.23867 82.836 0 80.0844 0H19.9729C17.2213 0 14.9826 2.23867 14.9826 4.99023C14.9826 7.7418 17.2213 9.98047 19.9729 9.98047H20.208L20.7016 12.0424H11.0207C8.57521 12.0424 6.26447 13.1113 4.68146 14.975C3.09826 16.8389 2.4174 19.2922 2.8135 21.7057C3.834 27.9275 6.10666 36.9807 11.1338 44.9342V76.9916C11.0971 78.1471 12.5295 78.8877 13.4516 78.1881L20.0664 73.4887L26.6813 78.1881C27.6018 78.8873 29.0364 78.1471 28.999 76.9916V59.4818C31.3303 60.2406 33.7822 60.7314 36.3389 60.9527C38.6623 62.9877 41.4016 64.477 44.367 65.3131V84.8867C44.367 87.0744 42.8039 88.9414 40.6502 89.3258L35.8176 90.1885C31.4582 90.9668 27.8528 93.8775 26.1731 97.975C25.7623 98.9 26.5196 100.029 27.5311 99.9994H72.526C73.5844 100.03 74.3319 98.8145 73.844 97.8793C72.1475 93.8211 68.5489 90.9398 64.2178 90.1723L59.4125 89.3205C57.2555 88.9383 55.6901 87.0709 55.6901 84.8805V65.2949C58.6321 64.4555 61.3504 62.9729 63.6573 60.9527C66.2364 60.7295 68.7086 60.2314 71.058 59.4615V76.9916C71.0209 78.1473 72.4551 78.8871 73.3758 78.1881L79.9906 73.4887L86.6055 78.1881C87.5276 78.8877 88.96 78.1467 88.9233 76.9916V64.5074C88.9233 63.6969 88.2662 63.0396 87.4555 63.0396C86.645 63.0396 85.9877 63.6967 85.9877 64.5074V74.1486L80.8406 70.4918C80.3315 70.1303 79.6494 70.1301 79.1407 70.4918L73.9936 74.1486V58.3289C75.2924 57.7496 76.5496 57.0834 77.759 56.3244C80.7946 54.4195 83.5489 51.9451 85.9879 48.9451V58.6367C85.9879 59.4473 86.645 60.1045 87.4557 60.1045C88.2662 60.1045 88.9235 59.4473 88.9235 58.6367V44.8383C93.9082 36.9082 96.167 27.9027 97.1834 21.7059C97.5795 19.2922 96.8987 16.8389 95.3155 14.975ZM77.2293 20.8486H88.3975C87.5992 25.4506 85.6641 33.6074 81.3024 40.4166C78.2678 45.1539 74.5104 48.5014 70.1063 50.4023C70.1221 50.3396 70.1399 50.2775 70.1549 50.2146L77.2293 20.8486ZM6.91877 16.8754C7.94318 15.6695 9.4383 14.9779 11.0207 14.9779H21.4045L22.1074 17.9133H11.0207C9.55393 17.8785 8.33518 19.3146 8.60666 20.7557C9.01506 23.2449 9.79807 27.0924 11.2098 31.2852C11.8024 33.1059 14.6235 32.1385 13.9916 30.3486C12.7459 26.6486 12.0119 23.2266 11.5992 20.8486H22.8102L29.8352 50.1871C29.8526 50.2594 29.8727 50.3307 29.8908 50.4025C25.4867 48.5014 21.7291 45.1539 18.6946 40.4166C17.7678 38.9699 16.8965 37.373 16.1045 35.6705C15.7627 34.9355 14.8899 34.6168 14.1547 34.9588C13.4197 35.3008 13.101 36.1736 13.443 36.9086C14.2903 38.7301 15.2256 40.4432 16.2229 42C20.1217 48.0865 25.1422 52.1193 31.1531 53.9982C31.7266 55.25 32.4221 56.4412 33.2326 57.5549C29.8262 56.8791 26.6645 55.6367 23.7981 53.8381C19.9385 51.4162 16.5582 47.966 13.751 43.5832C8.89084 35.9961 6.69572 27.24 5.70998 21.2307C5.45373 19.6687 5.89436 18.0812 6.91877 16.8754ZM26.0633 74.1484L20.9162 70.4916C20.4071 70.1301 19.725 70.1299 19.2162 70.4916L14.069 74.1484V49.0191C16.4932 51.9857 19.2272 54.4352 22.2377 56.3242C23.4656 57.0947 24.743 57.7701 26.0633 58.3555V74.1484ZM53.9012 62.7229C53.2311 62.8732 52.7549 63.4682 52.7549 64.1549V84.8805C52.7549 88.4969 55.3395 91.5797 58.9004 92.2109L63.7057 93.0627C66.3053 93.5234 68.5627 94.9705 70.0541 97.0643H30.0061C31.494 94.9812 33.741 93.5412 36.3334 93.0785L41.166 92.2158C44.7217 91.5811 47.3024 88.4988 47.3024 84.8869V64.1693C47.3024 63.4809 46.8237 62.8848 46.1514 62.7363C39.549 61.2768 34.2653 56.0826 32.6901 49.5035L23.2264 9.98047H60.1094C60.9199 9.98047 61.5772 9.32344 61.5772 8.5127C61.5772 7.70195 60.9199 7.04492 60.1094 7.04492H19.9729C18.8399 7.04492 17.9182 6.12305 17.9182 4.99023C17.9182 3.85723 18.8401 2.93535 19.9729 2.93535H80.0844C81.2174 2.93535 82.1393 3.85723 82.1393 4.99023C82.1393 6.12324 81.2174 7.04492 80.0844 7.04492H65.9801C65.1696 7.04492 64.5123 7.70195 64.5123 8.5127C64.5123 9.32344 65.1696 9.98047 65.9801 9.98047H76.8282L67.3012 49.5273C66.5156 52.7883 64.8334 55.7486 62.4362 58.0883C60.0696 60.398 57.1182 62.0006 53.9012 62.7229ZM94.2869 21.2307C93.3012 27.24 91.1061 35.9961 86.2459 43.583C83.4387 47.9658 80.0584 51.416 76.1989 53.8379C73.3324 55.6365 70.1705 56.8791 66.7639 57.5547C67.5744 56.4412 68.2701 55.25 68.8436 53.9982C74.8547 52.1195 79.8752 48.0865 83.7742 41.9998C88.6061 34.4568 90.6198 25.4518 91.3901 20.7557C91.6619 19.3137 90.442 17.8785 88.9762 17.9133H77.9365L78.6438 14.9779H88.9762C92.2 14.9004 94.8852 18.0621 94.2869 21.2307Z" fill="#44ADCF"/>
<path d="M61.9287 32.658C62.9119 31.6994 63.2594 30.2926 62.835 28.9867C62.4106 27.6807 61.3028 26.7467 59.9438 26.5492L55.6258 25.9219C55.4155 25.8914 55.2336 25.7592 55.1395 25.5684L53.2084 21.6557C52.6006 20.4242 51.37 19.6592 49.9967 19.6592C48.6235 19.6592 47.3928 20.4242 46.785 21.6557L44.8539 25.5686C44.7598 25.7592 44.578 25.8914 44.3676 25.9219L40.0496 26.5492C38.6907 26.7467 37.5828 27.6807 37.1584 28.9867C36.734 30.2926 37.0815 31.6994 38.0647 32.658L41.1891 35.7037C41.3414 35.8521 41.4108 36.0658 41.3748 36.2754L40.6373 40.576C40.4053 41.9295 40.9512 43.2717 42.0621 44.0789C43.1762 44.8885 44.6231 44.9885 45.8338 44.3516L49.6957 42.3211C49.884 42.2221 50.109 42.2221 50.2971 42.3211L54.1592 44.3514C55.3746 44.9906 56.82 44.8861 57.9307 44.0789C59.0416 43.2717 59.5877 41.9295 59.3557 40.576L58.6182 36.2754C58.5823 36.0658 58.6516 35.8521 58.8039 35.7035L61.9287 32.658ZM56.7551 33.6016C55.9108 34.4244 55.5258 35.6096 55.725 36.7715L56.4625 41.0721C56.4846 41.6842 56.1006 41.9633 55.5252 41.7531L51.6631 39.7227C50.62 39.1742 49.3737 39.1742 48.3299 39.7227L44.4678 41.7531C43.893 41.9631 43.5082 41.6842 43.5305 41.0721L44.268 36.7717C44.4674 35.6096 44.0823 34.4244 43.2379 33.6016L40.1139 30.5559C39.7364 30.0738 39.8828 29.6221 40.4719 29.4539L44.7899 28.8266C45.9565 28.657 46.9647 27.9246 47.4864 26.8674L49.4174 22.9547C49.7592 22.4465 50.234 22.4463 50.576 22.9547L52.5071 26.8674C53.0287 27.9246 54.0369 28.657 55.2035 28.8266L59.5215 29.4539C60.1104 29.6221 60.2573 30.0736 59.8797 30.5559L56.7551 33.6016Z" fill="#44ADCF"/>
</g>
</svg>
