<svg width="100" height="100" viewBox="0 0 100 100" fill="none" xmlns="http://www.w3.org/2000/svg">
<g opacity="0.25">
<path d="M10.0195 70.342C10.0195 71.6883 11.1146 72.7834 12.4609 72.7834H20.1104C21.4566 72.7834 22.5518 71.6883 22.5518 70.342V62.6924C22.5518 61.3461 21.4566 60.251 20.1104 60.251H12.4609C11.1146 60.251 10.0195 61.3461 10.0195 62.6924V70.342ZM12.9492 63.1807H19.6221V69.8537H12.9492V63.1807Z" fill="#44ADCF"/>
<path d="M12.4609 39.8H20.1104C21.4566 39.8 22.5518 38.7049 22.5518 37.3586V29.709C22.5518 28.3627 21.4566 27.2676 20.1104 27.2676H12.4609C11.1146 27.2676 10.0195 28.3627 10.0195 29.709V37.3586C10.0195 38.7047 11.1146 39.8 12.4609 39.8ZM12.9492 30.1973H19.6221V36.8703H12.9492V30.1973Z" fill="#44ADCF"/>
<path d="M10.0195 53.8498C10.0195 55.1961 11.1146 56.2912 12.4609 56.2912H20.1104C21.4566 56.2912 22.5518 55.1961 22.5518 53.8498V46.2002C22.5518 44.8539 21.4566 43.7588 20.1104 43.7588H12.4609C11.1146 43.7588 10.0195 44.8539 10.0195 46.2002V53.8498ZM12.9492 46.6887H19.6221V53.3617H12.9492V46.6887Z" fill="#44ADCF"/>
<path d="M29.1602 39.8H36.8098C38.1561 39.8 39.2512 38.7049 39.2512 37.3586V29.709C39.2512 28.3627 38.1561 27.2676 36.8098 27.2676H29.1602C27.8139 27.2676 26.7188 28.3627 26.7188 29.709V37.3586C26.7188 38.7047 27.8139 39.8 29.1602 39.8ZM29.6484 30.1973H36.3215V36.8703H29.6484V30.1973Z" fill="#44ADCF"/>
<path d="M26.7188 53.8498C26.7188 55.1961 27.8139 56.2912 29.1602 56.2912H36.8098C38.1561 56.2912 39.2512 55.1961 39.2512 53.8498V46.2002C39.2512 44.8539 38.1561 43.7588 36.8098 43.7588H29.1602C27.8139 43.7588 26.7188 44.8539 26.7188 46.2002V53.8498ZM29.6484 46.6887H36.3215V53.3617H29.6484V46.6887Z" fill="#44ADCF"/>
<path d="M45.8633 39.8H53.5127C54.859 39.8 55.9541 38.7049 55.9541 37.3586V29.709C55.9541 28.3627 54.859 27.2676 53.5127 27.2676H45.8633C44.517 27.2676 43.4219 28.3627 43.4219 29.709V37.3586C43.4219 38.7047 44.5172 39.8 45.8633 39.8ZM46.3516 30.1973H53.0244V36.8703H46.3516V30.1973Z" fill="#44ADCF"/>
<path d="M100 37.5047C100 35.4047 98.2914 33.6961 96.1914 33.6961H82.6734V14.2703C82.6734 10.7703 79.826 7.92266 76.3258 7.92266H72.6533V6.31445C72.6533 5.50547 71.9977 4.84961 71.1885 4.84961C70.3793 4.84961 69.7236 5.50547 69.7236 6.31445V7.92266H64.0625C63.2533 7.92266 62.5977 8.57852 62.5977 9.3875C62.5977 10.1965 63.2533 10.8523 64.0625 10.8523H69.7236V15.082C69.7236 15.891 70.3793 16.5469 71.1885 16.5469C71.9977 16.5469 72.6533 15.891 72.6533 15.082V10.8523H76.3258C78.2104 10.8523 79.7438 12.3857 79.7438 14.2703V20.6234H2.92969V14.2703C2.92969 12.3857 4.46309 10.8523 6.34766 10.8523H10.0203V15.082C10.0203 15.891 10.676 16.5469 11.4852 16.5469C12.2943 16.5469 12.95 15.891 12.95 15.082V10.8523H57.2266C58.0357 10.8523 58.6914 10.1965 58.6914 9.3875C58.6914 8.57852 58.0357 7.92266 57.2266 7.92266H12.95V6.31445C12.95 5.50547 12.2943 4.84961 11.4852 4.84961C10.676 4.84961 10.0203 5.50547 10.0203 6.31445V7.92266H6.34766C2.84746 7.92266 0 10.7703 0 14.2703V73.7875C0 77.2875 2.84746 80.1352 6.34766 80.1352H12.6953C13.5045 80.1352 14.1602 79.4793 14.1602 78.6703C14.1602 77.8613 13.5045 77.2055 12.6953 77.2055H6.34766C4.46309 77.2055 2.92969 75.6721 2.92969 73.7875V23.5531H79.7438V33.6961H72.6531V29.709C72.6531 28.3627 71.558 27.2676 70.2117 27.2676H62.5623C61.216 27.2676 60.1209 28.3627 60.1209 29.709V37.3586C60.1209 38.7049 61.216 39.8 62.5623 39.8H65.7572V42.5105C65.7572 42.948 65.8324 43.368 65.9695 43.7592H62.5621C61.2158 43.7592 60.1207 44.8543 60.1207 46.2006V50.8975C58.7713 50.6225 57.3777 50.4711 55.9527 50.4521V46.2006C55.9527 44.8543 54.8576 43.7592 53.5113 43.7592H45.8619C44.5156 43.7592 43.4205 44.8543 43.4205 46.2006V53.8502C43.4205 53.9318 43.4256 54.0127 43.4336 54.093C40.9521 55.7191 38.8119 57.8244 37.1465 60.2775C37.0359 60.2617 36.9244 60.251 36.8111 60.251H29.1615C27.8152 60.251 26.7201 61.3461 26.7201 62.6924V70.342C26.7201 71.6883 27.8152 72.7834 29.1615 72.7834H33.3008C33.3008 72.7889 33.3006 72.7945 33.3006 72.8C33.3006 74.3078 33.4516 75.7809 33.7377 77.2059H19.5312C18.7221 77.2059 18.0664 77.8617 18.0664 78.6707C18.0664 79.4797 18.7221 80.1355 19.5312 80.1355H34.5387C37.5812 88.8678 45.8961 95.1514 55.6521 95.1514C63.4385 95.1514 70.3064 91.1484 74.3096 85.0932H96.1914C98.2914 85.0932 100 83.3846 100 81.2846V76.2787C100 75.3945 99.6945 74.582 99.1871 73.935C99.6945 73.2879 100 72.4754 100 71.5912V66.5853C100 65.7012 99.6945 64.8887 99.1871 64.2416C99.6945 63.5945 100 62.782 100 61.8978V56.892C100 56.0078 99.6945 55.1953 99.1871 54.5482C99.6945 53.9012 100 53.0887 100 52.2045V47.1986C100 46.3145 99.6945 45.502 99.1871 44.8549C99.6945 44.2078 100 43.3953 100 42.5111V37.5047ZM65.8147 36.8703H63.0506V30.1973H69.7234V33.6961H69.5658C67.6826 33.6961 66.1182 35.0717 65.8147 36.8703ZM63.0506 46.6889H65.7949C65.7723 46.8557 65.7572 47.025 65.7572 47.198V52.2039C65.7572 52.4418 65.7811 52.6738 65.8232 52.8994C64.932 52.4422 64.0059 52.0443 63.0506 51.7084V46.6889ZM46.3504 46.6889H53.0232V50.6037C50.6684 50.8809 48.4244 51.525 46.3504 52.4781V46.6889ZM33.4951 69.8533H29.65V63.1803H35.4789C34.4883 65.2496 33.8072 67.4939 33.4951 69.8533ZM55.652 92.2211C44.9428 92.2211 36.2305 83.5086 36.2305 72.7996C36.2305 62.0904 44.9428 53.3779 55.652 53.3779C66.3611 53.3779 75.0736 62.0904 75.0736 72.7996C75.0738 83.5086 66.3613 92.2211 55.652 92.2211ZM97.0703 81.2842C97.0703 81.7688 96.676 82.1631 96.1914 82.1631H75.9447C76.9176 80.0633 77.5734 77.7883 77.8514 75.3994H96.1912C96.6758 75.3994 97.0701 75.7937 97.0701 76.2783V81.2842H97.0703ZM97.0703 61.8975C97.0703 62.382 96.676 62.7764 96.1914 62.7764H88.0859C87.2768 62.7764 86.6211 63.4322 86.6211 64.2412C86.6211 65.0502 87.2768 65.7061 88.0859 65.7061H96.1914C96.676 65.7061 97.0703 66.1004 97.0703 66.585V71.5908C97.0703 72.0754 96.676 72.4697 96.1914 72.4697H77.9992C77.9648 70.1096 77.5639 67.8367 76.849 65.7061H81.25C82.0592 65.7061 82.7148 65.0502 82.7148 64.2412C82.7148 63.4322 82.0592 62.7764 81.25 62.7764H75.626C74.3262 60.1969 72.5416 57.9023 70.3922 56.0127H96.1914C96.676 56.0127 97.0703 56.407 97.0703 56.8916V61.8975ZM97.0703 52.2039C97.0703 52.6885 96.676 53.0828 96.1914 53.0828H69.566C69.0814 53.0828 68.6871 52.6885 68.6871 52.2039V47.198C68.6871 46.7135 69.0814 46.3191 69.566 46.3191H96.1914C96.676 46.3191 97.0703 46.7135 97.0703 47.198V52.2039ZM97.0703 42.5105C97.0703 42.9951 96.676 43.3895 96.1914 43.3895H69.566C69.0814 43.3895 68.6871 42.9951 68.6871 42.5105V37.5047C68.6871 37.0201 69.0814 36.6258 69.566 36.6258H96.1914C96.676 36.6258 97.0703 37.0201 97.0703 37.5047V42.5105Z" fill="#44ADCF"/>
<path d="M53.0973 65.7525H58.2045C59.4449 65.7525 60.4541 66.7617 60.4541 68.0021C60.4541 68.8111 61.1098 69.467 61.9189 69.467C62.7281 69.467 63.3838 68.8111 63.3838 68.0021C63.3838 65.1463 61.0604 62.8228 58.2045 62.8228H57.1156V60.8828C57.1156 60.0738 56.46 59.418 55.6508 59.418C54.8416 59.418 54.1859 60.0738 54.1859 60.8828V62.8228H53.0973C50.2414 62.8228 47.918 65.1463 47.918 68.0021V69.0855C47.918 71.9414 50.2414 74.2648 53.0973 74.2648H58.2045C59.4449 74.2648 60.4541 75.274 60.4541 76.5145V77.5979C60.4541 78.8383 59.4449 79.8475 58.2045 79.8475H53.0973C51.8568 79.8475 50.8477 78.8383 50.8477 77.5979C50.8477 76.7889 50.192 76.133 49.3828 76.133C48.5736 76.133 47.918 76.7889 47.918 77.5979C47.918 80.4537 50.2414 82.7771 53.0973 82.7771H54.1859V84.7172C54.1859 85.5262 54.8416 86.182 55.6508 86.182C56.46 86.182 57.1156 85.5262 57.1156 84.7172V82.7771H58.2045C61.0604 82.7771 63.3838 80.4537 63.3838 77.5979V76.5145C63.3838 73.6586 61.0604 71.3352 58.2045 71.3352H53.0973C51.8568 71.3352 50.8477 70.326 50.8477 69.0855V68.0021C50.8479 66.7617 51.857 65.7525 53.0973 65.7525Z" fill="#44ADCF"/>
<path d="M66.3585 63.7862C65.6886 64.2397 65.5134 65.1505 65.9669 65.8206C68.7932 69.995 68.7932 75.6042 65.9669 79.7784C65.5134 80.4483 65.6886 81.3591 66.3585 81.8128C66.6102 81.9833 66.8958 82.0649 67.1784 82.0649C67.6481 82.0649 68.1096 81.8393 68.3927 81.4212C71.8843 76.2643 71.8843 69.335 68.3927 64.178C67.9391 63.5079 67.0278 63.3327 66.3585 63.7862Z" fill="#44ADCF"/>
<path d="M44.9459 63.7862C44.2755 63.3326 43.365 63.508 42.9117 64.1778C39.4201 69.3346 39.4201 76.2641 42.9117 81.4209C43.1947 81.8393 43.6562 82.0647 44.1259 82.0647C44.4085 82.0647 44.6943 81.983 44.9459 81.8125C45.6158 81.359 45.791 80.4483 45.3375 79.7782C42.5111 75.6037 42.5111 69.9946 45.3375 65.8203C45.791 65.1504 45.6158 64.2397 44.9459 63.7862Z" fill="#44ADCF"/>
</g>
</svg>
