<svg width="100" height="100" viewBox="0 0 100 100" fill="none" xmlns="http://www.w3.org/2000/svg">
<g opacity="0.25" clip-path="url(#clip0_19148_4266)">
<path d="M30.121 58.4135C29.7003 58.2648 29.2698 58.1088 28.8407 57.9463V51.0939C29.9192 51.3522 30.562 51.8975 30.6192 51.9473C31.2079 52.4805 32.1174 52.4404 32.6571 51.8555C33.1997 51.2672 33.1626 50.3504 32.5743 49.8078C32.4919 49.7318 31.1075 48.4844 28.8407 48.1443V46.7449C28.8407 45.9447 28.1919 45.2959 27.3917 45.2959C26.5915 45.2959 25.9426 45.9447 25.9426 46.7449V48.2557C25.7276 48.3029 25.5094 48.3574 25.2864 48.4248C23.2135 49.0492 21.6647 50.8232 21.2442 53.0545C20.861 55.0889 21.5126 57.0506 22.9452 58.1742C23.7042 58.7695 24.6489 59.3148 25.9428 59.8908V68.5793C24.8235 68.4969 24.0481 68.2236 22.7776 67.3924C22.1079 66.9541 21.2096 67.142 20.7717 67.8117C20.3337 68.4814 20.5214 69.3795 21.1911 69.8176C23.0434 71.0293 24.309 71.3906 25.9428 71.4826V73.0496C25.9428 73.8498 26.5917 74.4986 27.3919 74.4986C28.1921 74.4986 28.8409 73.8498 28.8409 73.0496V71.3674C32.0919 70.7295 33.9909 68.0488 34.4118 65.5447C34.9526 62.3254 33.2686 59.5262 30.121 58.4135ZM24.7333 55.8939C24.1555 55.4406 23.9096 54.5584 24.0919 53.5912C24.2551 52.7246 24.8272 51.6834 25.9424 51.2623V56.6668C25.4874 56.4199 25.0758 56.1625 24.7333 55.8939ZM31.5534 65.0645C31.3303 66.391 30.4065 67.7971 28.8405 68.3574V61.0334C28.945 61.0709 29.0473 61.108 29.1549 61.1461C31.8327 62.0924 31.6678 64.3844 31.5534 65.0645Z" fill="#44ADCF"/>
<path d="M99.9201 56.5492C99.6709 55.4168 98.8727 54.5022 97.7844 54.1021L93.6369 52.5777C92.8861 52.3018 92.0531 52.6867 91.777 53.4379C91.501 54.1891 91.8859 55.0219 92.6373 55.2979L96.7848 56.8223C97.0006 56.9016 97.0686 57.0754 97.0896 57.1719C97.1109 57.2684 97.1223 57.4545 96.9594 57.6172L59.9369 94.6398C59.7738 94.8029 59.5875 94.7912 59.4914 94.7701C59.3949 94.7488 59.2213 94.6811 59.142 94.4648L53.9391 80.3088C53.5961 79.376 52.8645 78.6445 51.9318 78.3018L37.776 73.099C37.56 73.0195 37.4922 72.8459 37.4709 72.7494C37.4496 72.6529 37.4383 72.4668 37.601 72.3041L74.6238 35.2814C74.7867 35.1186 74.9725 35.1301 75.0691 35.1512C75.1656 35.1725 75.3393 35.2402 75.4186 35.4562L80.6213 49.6121C80.9641 50.5451 81.6959 51.2766 82.6287 51.6193L86.2291 52.9426C86.9803 53.2189 87.8131 52.8336 88.0891 52.0824C88.365 51.3312 87.9801 50.4984 87.2287 50.2225L83.6281 48.899C83.4951 48.8502 83.3906 48.7457 83.3418 48.6125L78.1391 34.4566C77.7391 33.3684 76.8244 32.5701 75.6922 32.3209C74.5604 32.0715 73.3947 32.4125 72.5746 33.2322L71.173 34.6338V20.2576C71.173 18.3934 69.6562 16.8766 67.792 16.8766H53.0334C54.3836 14.2516 53.9617 10.9434 51.7652 8.74707C49.8848 6.8666 47.1578 6.24883 44.7146 7.03008C43.7711 4.29297 41.1711 2.32031 38.1176 2.32031C35.0643 2.32031 32.4645 4.29258 31.5207 7.0293C29.0777 6.24668 26.3535 6.86328 24.4701 8.74687C23.1521 10.0646 22.4264 11.8168 22.4264 13.6807C22.4264 14.8111 22.6951 15.9 23.1994 16.8764H21.9838C21.1836 16.8764 20.5348 17.5252 20.5348 18.3254C20.5348 19.1256 21.1836 19.7744 21.9838 19.7744H32.31V33.4891C30.7068 33.1973 29.0748 33.0463 27.434 33.0463C24.4137 33.0463 21.5715 33.517 18.8516 34.4229L7.96055 34.4232V20.2574C7.96055 19.991 8.17715 19.7744 8.44355 19.7744H15.05C15.8502 19.7744 16.499 19.1256 16.499 18.3254C16.499 17.5252 15.8502 16.8764 15.05 16.8764H8.44316C6.57891 16.8764 5.06211 18.3932 5.06211 20.2574V44.5902C5.06211 44.599 5.06328 44.6076 5.06348 44.6166C1.87598 49.0982 0 54.5742 0 60.4801C0 66.3727 1.84805 71.9926 5.34434 76.7324C5.62852 77.1176 6.06699 77.3213 6.51152 77.3213C6.81035 77.3213 7.11172 77.2293 7.37051 77.0383C8.01465 76.5633 8.15156 75.6561 7.67637 75.0119C4.5502 70.774 2.89785 65.7488 2.89785 60.4799C2.89785 46.951 13.9045 35.9445 27.4334 35.9445C38.7732 35.9445 48.5215 43.5844 51.2459 54.5605L48.7928 57.0137C48.059 52.4578 45.8875 48.2619 42.5199 44.9826C38.4535 41.0232 33.0957 38.8426 27.4334 38.8426C15.5025 38.8426 5.7959 48.549 5.7959 60.4799C5.7959 72.4107 15.5023 82.1174 27.4334 82.1174C32.3576 82.1174 37.1271 80.432 40.9592 77.3566L44.065 78.498C39.55 82.6619 33.6008 85.0154 27.4334 85.0154C21.8357 85.0154 16.3566 83.0723 12.0055 79.5441C11.384 79.04 10.4715 79.1354 9.96738 79.757C9.46328 80.3787 9.55859 81.291 10.1803 81.7953C15.0459 85.7408 21.1732 87.9137 27.4334 87.9137C34.8199 87.9137 41.9256 84.8963 47.0803 79.6063L50.932 81.0219C51.0652 81.0709 51.1697 81.1754 51.2186 81.3086L56.4213 95.4645C56.8213 96.5527 57.7359 97.351 58.868 97.6002C59.1121 97.6539 59.3578 97.6803 59.6012 97.6803C60.4867 97.6803 61.3424 97.332 61.9857 96.6889L99.0086 59.6664C99.8283 58.8467 100.169 57.6814 99.9201 56.5492ZM7.96016 41.177V37.3217H12.7426C11.0064 38.427 9.40273 39.7217 7.96016 41.177ZM68.2748 20.2576V34.4234H43.9252V19.7746H67.7918C68.0582 19.7746 68.2748 19.9914 68.2748 20.2576ZM49.716 10.7963C51.3064 12.3869 51.3064 14.975 49.7162 16.5652C49.6527 16.6289 49.5295 16.7344 49.3156 16.8766H42.2557C44.359 12.9201 44.9043 10.9842 45.0451 10.0115C46.5975 9.25254 48.4729 9.55313 49.716 10.7963ZM38.1174 5.21836C40.3668 5.21836 42.1969 7.04844 42.1969 9.29766C42.1969 9.71641 41.9586 11.4922 38.9549 16.8764H37.2801C34.277 11.4936 34.0381 9.71719 34.0381 9.29766C34.0381 7.04844 35.868 5.21836 38.1174 5.21836ZM26.5191 16.5654C25.7486 15.7949 25.3242 14.7705 25.3242 13.6809C25.3242 12.5912 25.7486 11.5668 26.5191 10.7963C27.7645 9.55098 29.6371 9.25215 31.1898 10.0123C31.3309 10.9854 31.8758 12.9203 33.9791 16.8766H26.9195C26.7057 16.7346 26.5828 16.6291 26.5191 16.5654ZM35.2076 19.7746H41.0271V34.4234H36.0098C36.0033 34.4234 35.9973 34.4242 35.9908 34.4244C35.7311 34.3389 35.4697 34.2584 35.2076 34.1807V19.7746ZM44.5795 39.0785C43.7912 38.4459 42.9695 37.8602 42.1205 37.3217H68.275V37.5318L62.6656 43.1412H48.6725C47.4588 41.6543 46.0881 40.2895 44.5795 39.0785ZM50.742 46.0393H59.7674L53.592 52.2146C52.9031 50.0459 51.9422 47.9701 50.742 46.0393ZM27.4336 79.2195C17.1006 79.2195 8.69434 70.8131 8.69434 60.4803C8.69434 50.1475 17.1008 41.741 27.4336 41.741C37.3811 41.741 45.718 49.7504 46.1535 59.6535L35.552 70.2551C34.7322 71.0748 34.3914 72.2402 34.6406 73.3725C34.8898 74.5047 35.6883 75.4193 36.7764 75.8193L37.6898 76.1551C34.6553 78.1443 31.0936 79.2195 27.4336 79.2195Z" fill="#44ADCF"/>
<path d="M71.0513 77.1685C71.2338 77.1685 71.4197 77.1337 71.599 77.0603C72.3398 76.7575 72.6949 75.9114 72.392 75.1706L64.0486 54.7597C63.7461 54.0191 62.9002 53.6634 62.159 53.9667C61.4181 54.2694 61.0631 55.1155 61.366 55.8564L69.7094 76.2673C69.9388 76.8286 70.4801 77.1685 71.0513 77.1685Z" fill="#44ADCF"/>
<path d="M53.8242 60.802C52.8089 61.8173 52.3124 63.2114 52.4261 64.7276C52.5337 66.162 53.1837 67.5428 54.2562 68.6153C55.3288 69.688 56.7095 70.338 58.1441 70.4454C58.2863 70.4561 58.4275 70.4614 58.5673 70.4614C59.9185 70.4614 61.1496 69.9673 62.0697 69.0473C63.0849 68.0321 63.5814 66.638 63.4677 65.1218C63.3601 63.6872 62.7101 62.3065 61.6376 61.2339C60.565 60.1612 59.1843 59.5112 57.7497 59.4038C56.2324 59.2895 54.8392 59.7868 53.8242 60.802ZM59.5884 63.2833C60.1706 63.8657 60.5222 64.5956 60.5779 65.3386C60.6275 65.9997 60.4294 66.5891 60.0203 66.9983C59.6113 67.4073 59.0212 67.6046 58.3607 67.5557C57.6177 67.5001 56.8878 67.1487 56.3054 66.5663C55.7232 65.9839 55.3716 65.254 55.316 64.5112C55.2663 63.8501 55.4644 63.2606 55.8736 62.8514C56.2413 62.4837 56.7548 62.2866 57.3355 62.2866C57.4005 62.2866 57.4665 62.2891 57.5331 62.294C58.2761 62.3495 59.006 62.7009 59.5884 63.2833C59.5882 63.2833 59.5882 63.2833 59.5884 63.2833Z" fill="#44ADCF"/>
<path d="M76.5456 72.1428C77.8969 72.1428 79.128 71.6486 80.0479 70.7287C82.0829 68.6937 81.8891 65.1887 79.6161 62.9152C77.343 60.642 73.8378 60.4484 71.8026 62.4832C69.7676 64.5182 69.9614 68.0232 72.2346 70.2965C73.3073 71.3691 74.688 72.0191 76.1225 72.1266C76.2649 72.1375 76.4059 72.1428 76.5456 72.1428ZM73.852 64.5326C74.2358 64.1488 74.7563 63.9627 75.3161 63.9627C76.076 63.9627 76.9083 64.3062 77.5667 64.9646C78.71 66.108 78.9038 67.7746 77.9985 68.6797C77.5895 69.0885 76.9999 69.2865 76.3391 69.2371C75.5962 69.1814 74.8661 68.8301 74.2839 68.2476C73.1407 67.1041 72.9469 65.4377 73.852 64.5326Z" fill="#44ADCF"/>
</g>
<defs>
<clipPath id="clip0_19148_4266">
<rect width="100" height="100" fill="white"/>
</clipPath>
</defs>
</svg>
