<svg width="100" height="100" viewBox="0 0 100 100" fill="none" xmlns="http://www.w3.org/2000/svg">
<g opacity="0.25" clip-path="url(#clip0_19148_4277)">
<path d="M99.9471 62.1365L94.8694 18.5348C94.3758 14.2979 90.5272 11.2526 86.2907 11.7457L11.5449 20.4504C9.55738 20.6818 7.75993 21.6574 6.48376 23.1976C5.96755 23.8205 6.05408 24.7439 6.67693 25.2601C7.29997 25.7763 8.22321 25.6898 8.73961 25.0668C9.53238 24.1101 10.649 23.5041 11.8837 23.3603L86.6297 14.6559C87.9045 14.5072 89.1614 14.8641 90.1682 15.661C91.1748 16.4576 91.811 17.5986 91.9594 18.8738L97.0371 62.4756C97.3438 65.108 95.4516 67.4988 92.8194 67.8055L90.7229 68.0496V66.4611C90.7229 65.6522 90.067 64.9963 89.258 64.9963C88.4491 64.9963 87.7932 65.6522 87.7932 66.4611V80.5706C87.7932 83.2206 85.6372 85.3767 82.9872 85.3767H7.73571C5.08572 85.3767 2.92968 83.2206 2.92968 80.5706V36.6741C2.92968 34.0242 5.08572 31.8681 7.73571 31.8681H82.987C85.637 31.8681 87.793 34.0242 87.793 36.6741V60.1901C87.793 60.9991 88.4489 61.6549 89.2579 61.6549C90.0668 61.6549 90.7227 60.9991 90.7227 60.1901V36.6741C90.7227 32.4087 87.2524 28.9384 82.987 28.9384H7.73571C3.4703 28.9382 0 32.4085 0 36.6741V80.5706C0 84.8361 3.4703 88.3064 7.73571 88.3064H82.987C87.2524 88.3064 90.7227 84.8361 90.7227 80.5706V70.999L93.158 70.7154C95.2104 70.4764 97.0469 69.4523 98.3293 67.832C99.6117 66.2117 100.186 64.1891 99.9471 62.1365Z" fill="#44ADCF"/>
<path d="M10.8711 69.4932H23.4129C24.2219 69.4932 24.8777 68.8373 24.8777 68.0283C24.8777 67.2193 24.2219 66.5635 23.4129 66.5635H10.8711C10.0621 66.5635 9.40625 67.2193 9.40625 68.0283C9.40625 68.8373 10.0621 69.4932 10.8711 69.4932Z" fill="#44ADCF"/>
<path d="M10.8711 77.332H42.2258C43.0348 77.332 43.6906 76.6762 43.6906 75.8672C43.6906 75.0582 43.0348 74.4023 42.2258 74.4023H10.8711C10.0621 74.4023 9.40625 75.0582 9.40625 75.8672C9.40625 76.6762 10.0621 77.332 10.8711 77.332Z" fill="#44ADCF"/>
<path d="M42.2254 66.5635H29.6836C28.8746 66.5635 28.2188 67.2193 28.2188 68.0283C28.2188 68.8373 28.8746 69.4932 29.6836 69.4932H42.2254C43.0344 69.4932 43.6902 68.8373 43.6902 68.0283C43.6902 67.2193 43.0344 66.5635 42.2254 66.5635Z" fill="#44ADCF"/>
<path d="M61.0379 66.5635H48.4961C47.6871 66.5635 47.0312 67.2193 47.0312 68.0283C47.0312 68.8373 47.6871 69.4932 48.4961 69.4932H61.0379C61.8469 69.4932 62.5027 68.8373 62.5027 68.0283C62.5027 67.2193 61.8469 66.5635 61.0379 66.5635Z" fill="#44ADCF"/>
<path d="M65.8438 68.0283C65.8438 68.8373 66.4996 69.4932 67.3086 69.4932H79.8506C80.6596 69.4932 81.3154 68.8373 81.3154 68.0283C81.3154 67.2193 80.6596 66.5635 79.8506 66.5635H67.3086C66.4996 66.5635 65.8438 67.2193 65.8438 68.0283Z" fill="#44ADCF"/>
<path d="M14.0064 61.6551H23.4129C25.9496 61.6551 28.0133 59.5914 28.0133 57.0547V50.7838C28.0133 48.2473 25.9496 46.1836 23.4129 46.1836H14.0064C11.4699 46.1836 9.40625 48.2473 9.40625 50.7838V57.0547C9.40625 59.5914 11.4699 61.6551 14.0064 61.6551ZM12.3359 50.7838C12.3359 49.8627 13.0854 49.1133 14.0064 49.1133H23.4129C24.334 49.1133 25.0836 49.8627 25.0836 50.7838V57.0547C25.0836 57.9758 24.3342 58.7254 23.4129 58.7254H14.0064C13.0854 58.7254 12.3359 57.976 12.3359 57.0547V50.7838Z" fill="#44ADCF"/>
<path d="M17.1406 55.3838H20.2762C21.0852 55.3838 21.741 54.7279 21.741 53.9189C21.741 53.11 21.0852 52.4541 20.2762 52.4541H17.1406C16.3316 52.4541 15.6758 53.11 15.6758 53.9189C15.6758 54.7279 16.3316 55.3838 17.1406 55.3838Z" fill="#44ADCF"/>
<path d="M74.3948 56.7981C74.6044 56.9024 74.827 56.9518 75.0462 56.9518C75.5844 56.9518 76.1028 56.654 76.3589 56.1391C77.5669 53.7112 78.1792 51.1181 78.1792 48.4319C78.1792 45.7456 77.5667 43.1524 76.3589 40.7247C75.9983 40.0003 75.1192 39.7056 74.3948 40.0657C73.6706 40.4261 73.3755 41.3054 73.7358 42.0298C74.7403 44.0485 75.2495 46.2026 75.2495 48.4321C75.2495 50.6616 74.7403 52.8155 73.7358 54.8345C73.3753 55.5585 73.6704 56.4378 74.3948 56.7981Z" fill="#44ADCF"/>
<path d="M68.7719 53.9666C68.9821 54.0714 69.2052 54.1211 69.4251 54.1211C69.9626 54.1211 70.4803 53.824 70.7368 53.3103C71.5147 51.7517 71.9093 50.1105 71.9093 48.4322C71.9093 46.7539 71.5147 45.1127 70.7368 43.5541C70.3753 42.8302 69.4958 42.5363 68.7718 42.8978C68.0479 43.2591 67.7542 44.1388 68.1155 44.8629C68.6889 46.0113 68.9796 47.2123 68.9796 48.4322C68.9796 49.6521 68.6889 50.8531 68.1155 52.0015C67.7544 52.7254 68.0483 53.6052 68.7719 53.9666Z" fill="#44ADCF"/>
<path d="M63.1635 51.1414C63.3766 51.25 63.6036 51.3013 63.8274 51.3013C64.3606 51.3013 64.8749 51.009 65.1336 50.5013C65.47 49.8412 65.6405 49.1451 65.6405 48.4324C65.6405 47.7197 65.47 47.0236 65.1336 46.3634C64.7661 45.6427 63.884 45.3562 63.1633 45.7234C62.4426 46.0908 62.1559 46.9728 62.5233 47.6937C62.6477 47.9379 62.7108 48.1865 62.7108 48.4326C62.7108 48.6787 62.6477 48.9271 62.5233 49.1715C62.1561 49.892 62.4426 50.7742 63.1635 51.1414Z" fill="#44ADCF"/>
</g>
<defs>
<clipPath id="clip0_19148_4277">
<rect width="100" height="100" fill="white"/>
</clipPath>
</defs>
</svg>
