<svg width="100" height="100" viewBox="0 0 100 100" fill="none" xmlns="http://www.w3.org/2000/svg">
<g opacity="0.25">
<path d="M95.4691 28.8602C92.5697 27.3004 89.8728 25.3826 87.4496 23.1578C86.8537 22.6107 85.9269 22.6504 85.3799 23.2461C84.8326 23.842 84.8723 24.7686 85.4682 25.3158C87.9531 27.5975 90.7055 29.5777 93.6594 31.2105C93.5238 41.4877 91.1309 51.832 86.718 61.1869C82.1811 70.8125 75.4637 79.4607 67.3137 86.2219C66.6812 86.7445 66.0352 87.2598 65.3805 87.7641V82.1586C72.6637 75.9213 78.6756 68.0391 82.7816 59.3342C86.4252 51.6102 88.6375 43.0232 89.1797 34.5016C89.2131 33.976 88.9619 33.4727 88.5215 33.1838C79.575 27.3119 72.8518 18.4725 69.59 8.29356C69.3957 7.6873 68.8318 7.27578 68.1951 7.27578H42.8066C41.9977 7.27578 41.3418 7.93145 41.3418 8.74062C41.3418 9.5498 41.9977 10.2055 42.8066 10.2055H67.1391C70.625 20.3197 77.3461 29.1197 86.1975 35.1533C85.591 43.0338 83.5004 50.9441 80.1324 58.084C76.566 65.6445 71.4959 72.5537 65.3809 78.2293V71.4721C66.9465 71.0389 68.101 69.6051 68.101 67.9033V62.1816C68.101 60.4801 66.9467 59.0463 65.3809 58.6131V57.151C65.3809 56.4117 65.5758 55.6885 65.9443 55.059C67.4709 52.4523 69.2908 48.2709 69.2908 43.1535C69.2908 38.9121 69.2908 30.3184 69.2908 26.0633C69.2908 22.9479 66.7457 20.4133 63.6176 20.4133C62.4168 20.4133 61.3025 20.7865 60.384 21.4209C59.5029 19.433 57.5033 18.0412 55.1816 18.0412C53.8703 18.0412 52.6623 18.4863 51.6996 19.2309C50.7246 17.5 48.8699 16.3277 46.7457 16.3277C44.31 16.3277 42.2277 17.8686 41.4211 20.0264C40.5184 19.4361 39.4377 19.0914 38.2766 19.0914C35.1248 19.0914 32.5605 21.626 32.5605 24.7414V27.9924C29.3291 28.1688 26.7543 30.8514 26.7543 34.1256L26.7613 42.6545C26.7656 47.7373 29.7672 52.4371 34.5947 54.9199C34.8779 55.0656 35.1523 55.215 35.4102 55.3639C36.5463 56.0211 37.2787 57.2096 37.3658 58.51C35.5465 58.7443 34.1352 60.2998 34.1352 62.1818V67.9037C34.1352 69.7889 35.551 71.3465 37.3744 71.577V80.649C31.575 75.8545 26.6607 70.099 22.7689 63.542C22.3559 62.8463 21.4574 62.6168 20.7615 63.0301C20.0658 63.443 19.8367 64.3416 20.2494 65.0373C24.3357 71.9281 29.5119 77.9625 35.6129 82.9982C36.1867 83.4693 36.7787 83.9365 37.3744 84.3936V89.7822C35.7645 88.6578 34.1943 87.4668 32.6881 86.2223C24.5381 79.4607 17.8203 70.8127 13.2832 61.1867C8.87051 51.8318 6.47754 41.4875 6.3418 31.2102C16.5885 25.5461 24.0898 15.8477 26.9791 4.4877L27.377 2.92969H72.6248L73.0221 4.48652C74.4814 10.225 77.0697 15.501 80.715 20.168C81.2129 20.8055 82.1334 20.9186 82.7711 20.4209C83.4086 19.9229 83.5219 19.0021 83.0238 18.3648C79.6299 14.0193 77.2201 9.10723 75.8609 3.76328L75.182 1.10273C75.0166 0.453906 74.4322 0 73.7627 0H26.2389C25.5693 0 24.9852 0.453906 24.8195 1.10273L24.1402 3.76445C21.4131 14.4869 14.2738 23.6188 4.53242 28.8602C3.88672 29.0131 3.40625 29.5934 3.40625 30.2857C3.40625 41.2953 5.90547 52.4129 10.6336 62.4365C15.3459 72.4342 22.3205 81.4191 30.7828 88.4484C32.8805 90.184 35.0963 91.8207 37.3744 93.3221V98.5352C37.3744 99.3443 38.0303 100 38.8393 100C39.6482 100 40.3041 99.3443 40.3041 98.5352V71.6096H52.7488C53.5578 71.6096 54.2137 70.9539 54.2137 70.1447C54.2137 69.3355 53.5578 68.6799 52.7488 68.6799H37.841C37.4131 68.6799 37.0648 68.3316 37.0648 67.9035V62.1816C37.0648 61.7537 37.4131 61.4055 37.841 61.4055H64.3949C64.8228 61.4055 65.1711 61.7535 65.1711 62.1816V67.9035C65.1711 68.3314 64.8228 68.6799 64.3949 68.6799H59.601C58.792 68.6799 58.1361 69.3355 58.1361 70.1447C58.1361 70.9539 58.792 71.6096 59.601 71.6096H62.451V98.5352C62.451 99.3443 63.1068 100 63.9158 100C64.7248 100 65.3807 99.3443 65.3807 98.5352V91.4189C66.6883 90.4715 67.9787 89.4744 69.2186 88.4484C77.6811 81.4189 84.6553 72.4348 89.3678 62.4365C94.0959 52.4129 96.5951 41.2953 96.5951 30.2857C96.5953 29.5934 96.1148 29.0131 95.4691 28.8602ZM63.6174 23.3432C65.1303 23.3432 66.3609 24.5635 66.3609 26.0635V34.9578C66.3609 36.4578 65.1301 37.6781 63.6174 37.6781C62.0994 37.6781 60.8643 36.4578 60.8643 34.9578V26.0635C60.8643 24.5635 62.0992 23.3432 63.6174 23.3432ZM55.1814 20.9711C56.6994 20.9711 57.9346 22.1912 57.9346 23.6912V35.2213C57.9346 36.7213 56.6994 37.9416 55.1814 37.9416C53.6635 37.9416 52.4283 36.7213 52.4283 35.2213C52.4297 35.0979 52.4283 23.6912 52.4283 23.6912C52.4283 22.1912 53.6633 20.9711 55.1814 20.9711ZM43.9924 22.0105C43.9924 20.4926 45.2273 19.2574 46.7455 19.2574C48.2637 19.2574 49.4986 20.4924 49.4986 22.0105V34.5293C49.4986 36.0473 48.2635 37.2826 46.7455 37.2826C46.3234 37.2826 45.916 37.1877 45.5484 37.0102C46.3514 36.0543 46.8363 34.823 46.8363 33.4803C46.8363 31.4113 45.6865 29.6064 43.9926 28.6684V22.0105H43.9924ZM38.2764 22.0211C39.8127 22.0211 41.0627 23.2414 41.0627 24.7414V27.9826H35.49V24.7414C35.4902 23.2414 36.74 22.0211 38.2764 22.0211ZM35.9342 52.3145C32.0865 50.3357 29.6943 46.6332 29.6908 42.652L29.6838 34.1244C29.6838 32.3533 31.1262 30.9123 32.899 30.9123H41.3357C42.7531 30.9123 43.9064 32.0643 43.9064 33.4803C43.9064 34.8963 42.7533 36.048 41.3357 36.048H37.0426C36.6064 36.048 36.193 36.2424 35.9148 36.5781C35.6367 36.9139 35.5223 37.3561 35.6033 37.7848L36.6602 43.3826C36.7854 44.0455 37.3467 44.5369 38.0201 44.5736C42.4754 44.8152 45.4236 47.0113 46.7832 51.1014C47.0385 51.8691 47.8676 52.2842 48.6354 52.0293C49.4031 51.774 49.8186 50.9447 49.5633 50.1772C47.932 45.2703 44.4078 42.3756 39.3332 41.75L38.8098 38.9781H41.3357C41.8902 38.9781 42.4254 38.8949 42.9303 38.7418C43.9678 39.685 45.3154 40.2127 46.7453 40.2127C48.2625 40.2127 49.6416 39.6139 50.6617 38.6416C51.7008 39.9957 53.3396 40.8717 55.1811 40.8717C56.9186 40.8717 58.4756 40.0916 59.5187 38.8662C60.5537 39.9385 62.0076 40.608 63.617 40.608C64.6117 40.608 65.5469 40.351 66.3605 39.9012V43.1539C66.3605 47.6145 64.7592 51.2852 63.4156 53.5787C62.7842 54.6568 62.4506 55.8922 62.4506 57.1514V58.4762H40.2941C40.193 56.1463 38.9051 54.0014 36.8762 52.8279C36.5768 52.6545 36.2598 52.4816 35.9342 52.3145Z" fill="#44ADCF"/>
<path d="M32.8639 10.2061H35.8217C36.6307 10.2061 37.2866 9.55039 37.2866 8.74121C37.2866 7.93203 36.6307 7.27637 35.8217 7.27637H31.8074C31.1707 7.27637 30.6069 7.6877 30.4125 8.29414C27.1498 18.4734 20.4266 27.3131 11.4815 33.1844C11.0412 33.4734 10.7899 33.9766 10.8233 34.5021C11.3532 42.8334 13.4848 51.2475 16.9877 58.8344C17.235 59.3701 17.7649 59.6856 18.3186 59.6856C18.5241 59.6856 18.7328 59.642 18.9317 59.5504C19.666 59.2113 19.9866 58.341 19.6475 57.6064C16.4121 50.5986 14.3987 42.8535 13.8059 35.1541C22.6561 29.1209 29.377 20.3209 32.8639 10.2061Z" fill="#44ADCF"/>
</g>
</svg>
